<mxfile host="Electron" modified="2023-10-09T11:30:11.309Z" agent="Mozilla/5.0 (X11; Linux x86_64) AppleWebKit/537.36 (KHTML, like Gecko) draw.io/21.5.0 Chrome/112.0.5615.204 Electron/24.5.1 Safari/537.36" etag="HoWtsACzVioV7Tk8Cm7W" version="21.5.0" type="device">
  <diagram name="Page-1" id="Ak9YK5_zcOqBDPv9MUEP">
    <mxGraphModel dx="594" dy="852" grid="1" gridSize="10" guides="1" tooltips="1" connect="1" arrows="1" fold="1" page="1" pageScale="1" pageWidth="850" pageHeight="1100" math="1" shadow="0">
      <root>
        <mxCell id="0" />
        <mxCell id="1" parent="0" />
        <mxCell id="5ajm9E82aMMcOB_K5Kz2-14" value="" style="rounded=1;whiteSpace=wrap;html=1;fillColor=none;arcSize=3;" parent="1" vertex="1">
          <mxGeometry x="10" y="60" width="830" height="630" as="geometry" />
        </mxCell>
        <mxCell id="vSbOAeYHZavfsFfB_k8E-10" style="edgeStyle=orthogonalEdgeStyle;rounded=0;orthogonalLoop=1;jettySize=auto;html=1;exitX=1;exitY=0.5;exitDx=0;exitDy=0;entryX=0;entryY=0.5;entryDx=0;entryDy=0;" parent="1" source="vSbOAeYHZavfsFfB_k8E-1" target="vSbOAeYHZavfsFfB_k8E-2" edge="1">
          <mxGeometry relative="1" as="geometry" />
        </mxCell>
        <mxCell id="vSbOAeYHZavfsFfB_k8E-1" value="&lt;font style=&quot;font-size: 18px;&quot;&gt;Gather data&lt;/font&gt;" style="rounded=1;whiteSpace=wrap;html=1;" parent="1" vertex="1">
          <mxGeometry x="30" y="80" width="140" height="80" as="geometry" />
        </mxCell>
        <mxCell id="vSbOAeYHZavfsFfB_k8E-11" style="edgeStyle=orthogonalEdgeStyle;rounded=0;orthogonalLoop=1;jettySize=auto;html=1;exitX=1;exitY=0.5;exitDx=0;exitDy=0;entryX=0;entryY=0.5;entryDx=0;entryDy=0;spacing=12;" parent="1" source="vSbOAeYHZavfsFfB_k8E-2" target="vSbOAeYHZavfsFfB_k8E-4" edge="1">
          <mxGeometry relative="1" as="geometry">
            <Array as="points">
              <mxPoint x="430" y="120" />
              <mxPoint x="430" y="120" />
            </Array>
          </mxGeometry>
        </mxCell>
        <mxCell id="5ajm9E82aMMcOB_K5Kz2-1" value="&lt;font style=&quot;font-size: 18px;&quot;&gt;Yes&lt;/font&gt;" style="edgeLabel;html=1;align=center;verticalAlign=middle;resizable=0;points=[];spacing=3;spacingLeft=0;" parent="vSbOAeYHZavfsFfB_k8E-11" vertex="1" connectable="0">
          <mxGeometry x="-0.1853" relative="1" as="geometry">
            <mxPoint x="7" as="offset" />
          </mxGeometry>
        </mxCell>
        <mxCell id="5ajm9E82aMMcOB_K5Kz2-3" style="edgeStyle=orthogonalEdgeStyle;rounded=0;orthogonalLoop=1;jettySize=auto;html=1;exitX=0.5;exitY=1;exitDx=0;exitDy=0;entryX=0.5;entryY=0;entryDx=0;entryDy=0;" parent="1" source="vSbOAeYHZavfsFfB_k8E-2" target="5ajm9E82aMMcOB_K5Kz2-2" edge="1">
          <mxGeometry relative="1" as="geometry" />
        </mxCell>
        <mxCell id="5ajm9E82aMMcOB_K5Kz2-4" value="&lt;font style=&quot;font-size: 18px;&quot;&gt;No&lt;/font&gt;" style="edgeLabel;html=1;align=center;verticalAlign=middle;resizable=0;points=[];" parent="5ajm9E82aMMcOB_K5Kz2-3" vertex="1" connectable="0">
          <mxGeometry x="-0.1667" relative="1" as="geometry">
            <mxPoint as="offset" />
          </mxGeometry>
        </mxCell>
        <mxCell id="vSbOAeYHZavfsFfB_k8E-2" value="&lt;font style=&quot;font-size: 18px;&quot;&gt;Is it stationary?&lt;/font&gt;" style="rounded=1;whiteSpace=wrap;html=1;" parent="1" vertex="1">
          <mxGeometry x="240" y="80" width="140" height="80" as="geometry" />
        </mxCell>
        <mxCell id="5ajm9E82aMMcOB_K5Kz2-8" style="edgeStyle=orthogonalEdgeStyle;rounded=0;orthogonalLoop=1;jettySize=auto;html=1;exitX=1;exitY=0.5;exitDx=0;exitDy=0;entryX=0;entryY=0.5;entryDx=0;entryDy=0;" parent="1" source="vSbOAeYHZavfsFfB_k8E-4" target="5ajm9E82aMMcOB_K5Kz2-6" edge="1">
          <mxGeometry relative="1" as="geometry" />
        </mxCell>
        <mxCell id="vSbOAeYHZavfsFfB_k8E-4" value="&lt;font style=&quot;font-size: 18px;&quot;&gt;Plot ACF&lt;/font&gt;" style="rounded=1;whiteSpace=wrap;html=1;" parent="1" vertex="1">
          <mxGeometry x="450" y="80" width="140" height="80" as="geometry" />
        </mxCell>
        <mxCell id="5ajm9E82aMMcOB_K5Kz2-5" style="edgeStyle=orthogonalEdgeStyle;rounded=0;orthogonalLoop=1;jettySize=auto;html=1;exitX=0;exitY=0.5;exitDx=0;exitDy=0;entryX=0;entryY=0.75;entryDx=0;entryDy=0;" parent="1" source="5ajm9E82aMMcOB_K5Kz2-2" target="vSbOAeYHZavfsFfB_k8E-2" edge="1">
          <mxGeometry relative="1" as="geometry" />
        </mxCell>
        <mxCell id="5ajm9E82aMMcOB_K5Kz2-2" value="&lt;font style=&quot;font-size: 18px;&quot;&gt;Apply transformations&lt;/font&gt;" style="rounded=1;whiteSpace=wrap;html=1;" parent="1" vertex="1">
          <mxGeometry x="240" y="220" width="140" height="80" as="geometry" />
        </mxCell>
        <mxCell id="5ajm9E82aMMcOB_K5Kz2-11" value="&lt;font style=&quot;font-size: 18px;&quot;&gt;No&lt;/font&gt;" style="rounded=0;orthogonalLoop=1;jettySize=auto;html=1;exitX=0.5;exitY=1;exitDx=0;exitDy=0;entryX=0.5;entryY=0;entryDx=0;entryDy=0;" parent="1" source="5ajm9E82aMMcOB_K5Kz2-6" target="5ajm9E82aMMcOB_K5Kz2-9" edge="1">
          <mxGeometry x="-0.2396" relative="1" as="geometry">
            <mxPoint y="-1" as="offset" />
          </mxGeometry>
        </mxCell>
        <mxCell id="5ajm9E82aMMcOB_K5Kz2-12" style="rounded=0;orthogonalLoop=1;jettySize=auto;html=1;exitX=0.5;exitY=1;exitDx=0;exitDy=0;entryX=0.5;entryY=0;entryDx=0;entryDy=0;" parent="1" source="5ajm9E82aMMcOB_K5Kz2-6" target="7f5WXmc9LlSyJJ7GrscL-1" edge="1">
          <mxGeometry relative="1" as="geometry">
            <mxPoint x="748.5714285714287" y="280" as="targetPoint" />
          </mxGeometry>
        </mxCell>
        <mxCell id="5ajm9E82aMMcOB_K5Kz2-13" value="&lt;span style=&quot;font-size: 18px;&quot;&gt;Yes&lt;/span&gt;" style="edgeLabel;html=1;align=center;verticalAlign=middle;resizable=0;points=[];" parent="5ajm9E82aMMcOB_K5Kz2-12" vertex="1" connectable="0">
          <mxGeometry x="-0.2772" y="-1" relative="1" as="geometry">
            <mxPoint x="1" y="8" as="offset" />
          </mxGeometry>
        </mxCell>
        <mxCell id="5ajm9E82aMMcOB_K5Kz2-6" value="&lt;font style=&quot;font-size: 18px;&quot;&gt;Is there autocorrelation?&lt;/font&gt;" style="rounded=1;whiteSpace=wrap;html=1;" parent="1" vertex="1">
          <mxGeometry x="630" y="80" width="180" height="80" as="geometry" />
        </mxCell>
        <mxCell id="5ajm9E82aMMcOB_K5Kz2-9" value="&lt;span style=&quot;font-size: 18px;&quot;&gt;&lt;font color=&quot;#ff3333&quot;&gt;It is a random walk&lt;/font&gt;&lt;/span&gt;" style="text;html=1;strokeColor=none;fillColor=none;align=center;verticalAlign=middle;whiteSpace=wrap;rounded=0;" parent="1" vertex="1">
          <mxGeometry x="440" y="240" width="160" height="40" as="geometry" />
        </mxCell>
        <mxCell id="7f5WXmc9LlSyJJ7GrscL-1" value="&lt;font style=&quot;font-size: 18px;&quot;&gt;Do autocorrelation coefficients become abruptly non-significant after lag \(q\)?&lt;/font&gt;" style="rounded=1;whiteSpace=wrap;html=1;" parent="1" vertex="1">
          <mxGeometry x="620" y="220" width="200" height="120" as="geometry" />
        </mxCell>
        <mxCell id="7f5WXmc9LlSyJJ7GrscL-2" value="&lt;font style=&quot;font-size: 18px;&quot;&gt;Yes&lt;/font&gt;" style="rounded=0;orthogonalLoop=1;jettySize=auto;html=1;entryX=0.5;entryY=0;entryDx=0;entryDy=0;exitX=0.5;exitY=1;exitDx=0;exitDy=0;" parent="1" source="7f5WXmc9LlSyJJ7GrscL-1" target="7f5WXmc9LlSyJJ7GrscL-3" edge="1">
          <mxGeometry x="-0.0416" y="2" relative="1" as="geometry">
            <mxPoint x="730" y="340" as="sourcePoint" />
            <mxPoint x="520" y="420" as="targetPoint" />
            <mxPoint as="offset" />
          </mxGeometry>
        </mxCell>
        <mxCell id="7f5WXmc9LlSyJJ7GrscL-3" value="&lt;font color=&quot;#009900&quot;&gt;It is an \(\text{MA}(q)\) process&lt;/font&gt;" style="text;html=1;strokeColor=none;fillColor=none;align=center;verticalAlign=middle;whiteSpace=wrap;rounded=0;fontSize=18;" parent="1" vertex="1">
          <mxGeometry x="440" y="420" width="160" height="50" as="geometry" />
        </mxCell>
        <mxCell id="7f5WXmc9LlSyJJ7GrscL-5" style="rounded=0;orthogonalLoop=1;jettySize=auto;html=1;exitX=0.5;exitY=1;exitDx=0;exitDy=0;entryX=0.5;entryY=0;entryDx=0;entryDy=0;" parent="1" source="7f5WXmc9LlSyJJ7GrscL-1" target="QixbMN7R9XDKPzOEjpMf-2" edge="1">
          <mxGeometry relative="1" as="geometry">
            <mxPoint x="750" y="370" as="sourcePoint" />
            <mxPoint x="729.9999999999998" y="420" as="targetPoint" />
          </mxGeometry>
        </mxCell>
        <mxCell id="7f5WXmc9LlSyJJ7GrscL-6" value="&lt;span style=&quot;font-size: 18px;&quot;&gt;No&lt;br&gt;&lt;/span&gt;" style="edgeLabel;html=1;align=center;verticalAlign=middle;resizable=0;points=[];" parent="7f5WXmc9LlSyJJ7GrscL-5" vertex="1" connectable="0">
          <mxGeometry x="-0.2772" y="-1" relative="1" as="geometry">
            <mxPoint x="1" y="8" as="offset" />
          </mxGeometry>
        </mxCell>
        <mxCell id="QixbMN7R9XDKPzOEjpMf-1" value="&lt;span style=&quot;font-size: 18px;&quot;&gt;It is an \(\text{ARMA}(p,q)\) process&lt;/span&gt;" style="text;html=1;strokeColor=none;fillColor=none;align=center;verticalAlign=middle;whiteSpace=wrap;rounded=0;" parent="1" vertex="1">
          <mxGeometry x="50" y="580" width="160" height="50" as="geometry" />
        </mxCell>
        <mxCell id="QixbMN7R9XDKPzOEjpMf-4" style="rounded=0;orthogonalLoop=1;jettySize=auto;html=1;exitX=0;exitY=0.5;exitDx=0;exitDy=0;entryX=1;entryY=0.5;entryDx=0;entryDy=0;" parent="1" source="QixbMN7R9XDKPzOEjpMf-2" target="QixbMN7R9XDKPzOEjpMf-3" edge="1">
          <mxGeometry relative="1" as="geometry" />
        </mxCell>
        <mxCell id="QixbMN7R9XDKPzOEjpMf-2" value="&lt;font style=&quot;font-size: 18px;&quot;&gt;Plot PACF&lt;/font&gt;" style="rounded=1;whiteSpace=wrap;html=1;" parent="1" vertex="1">
          <mxGeometry x="630" y="510" width="180" height="50" as="geometry" />
        </mxCell>
        <mxCell id="QixbMN7R9XDKPzOEjpMf-8" style="rounded=0;orthogonalLoop=1;jettySize=auto;html=1;exitX=0;exitY=0.5;exitDx=0;exitDy=0;entryX=1;entryY=0.5;entryDx=0;entryDy=0;" parent="1" source="QixbMN7R9XDKPzOEjpMf-3" target="QixbMN7R9XDKPzOEjpMf-7" edge="1">
          <mxGeometry relative="1" as="geometry" />
        </mxCell>
        <mxCell id="QixbMN7R9XDKPzOEjpMf-10" value="&lt;font style=&quot;font-size: 18px;&quot;&gt;Yes&lt;/font&gt;" style="edgeLabel;html=1;align=center;verticalAlign=middle;resizable=0;points=[];" parent="QixbMN7R9XDKPzOEjpMf-8" vertex="1" connectable="0">
          <mxGeometry x="0.3246" y="-1" relative="1" as="geometry">
            <mxPoint x="19" y="2" as="offset" />
          </mxGeometry>
        </mxCell>
        <mxCell id="QixbMN7R9XDKPzOEjpMf-3" value="&lt;font style=&quot;font-size: 18px;&quot;&gt;Do coefficients become abruptly non-significant after lag \(p\)?&lt;/font&gt;" style="rounded=1;whiteSpace=wrap;html=1;" parent="1" vertex="1">
          <mxGeometry x="300" y="490" width="200" height="90" as="geometry" />
        </mxCell>
        <mxCell id="QixbMN7R9XDKPzOEjpMf-7" value="&lt;font color=&quot;#0000ff&quot;&gt;It is an \(\text{AR}(p)\) process&lt;/font&gt;" style="text;html=1;strokeColor=none;fillColor=none;align=center;verticalAlign=middle;whiteSpace=wrap;rounded=0;fontSize=18;" parent="1" vertex="1">
          <mxGeometry x="50" y="440" width="160" height="50" as="geometry" />
        </mxCell>
        <mxCell id="QixbMN7R9XDKPzOEjpMf-9" style="rounded=0;orthogonalLoop=1;jettySize=auto;html=1;exitX=0;exitY=0.5;exitDx=0;exitDy=0;entryX=1;entryY=0.5;entryDx=0;entryDy=0;" parent="1" source="QixbMN7R9XDKPzOEjpMf-3" target="QixbMN7R9XDKPzOEjpMf-1" edge="1">
          <mxGeometry relative="1" as="geometry">
            <mxPoint x="310" y="545" as="sourcePoint" />
            <mxPoint x="220" y="475" as="targetPoint" />
          </mxGeometry>
        </mxCell>
        <mxCell id="QixbMN7R9XDKPzOEjpMf-11" value="&lt;font style=&quot;font-size: 18px;&quot;&gt;No&lt;/font&gt;" style="edgeLabel;html=1;align=center;verticalAlign=middle;resizable=0;points=[];" parent="QixbMN7R9XDKPzOEjpMf-9" vertex="1" connectable="0">
          <mxGeometry x="-0.2854" y="1" relative="1" as="geometry">
            <mxPoint y="9" as="offset" />
          </mxGeometry>
        </mxCell>
      </root>
    </mxGraphModel>
  </diagram>
</mxfile>
